<svg width="560" height="96" viewBox="0 0 560 96" fill="none" xmlns="http://www.w3.org/2000/svg">
  <defs>
    <linearGradient id="clWord" x1="0" y1="14" x2="0" y2="82" gradientUnits="userSpaceOnUse">
      <stop stop-color="#7bffae"/>
      <stop offset="0.5" stop-color="#1fd65f"/>
      <stop offset="1" stop-color="#0f9a45"/>
    </linearGradient>
    <linearGradient id="clWordChip" x1="248" y1="22" x2="312" y2="74" gradientUnits="userSpaceOnUse">
      <stop stop-color="#2dff77"/>
      <stop offset="1" stop-color="#0f8d3f"/>
    </linearGradient>
  </defs>

  <g font-family="'Arial Black', 'Segoe UI', Impact, sans-serif" font-weight="900" font-size="62" font-style="italic" letter-spacing="1">
    <text x="6" y="68" fill="url(#clWord)">COSMIC</text>
    <text x="330" y="68" fill="url(#clWord)">LUCK</text>
  </g>

  <!-- chip divider -->
  <g transform="translate(280 48)">
    <circle r="26" fill="url(#clWordChip)"/>
    <g fill="#daffe8" opacity="0.9">
      <rect x="-2.5" y="-26" width="5" height="7.5" rx="1.2"/>
      <rect x="-2.5" y="18.5" width="5" height="7.5" rx="1.2"/>
      <rect x="18.5" y="-2.5" width="7.5" height="5" rx="1.2"/>
      <rect x="-26" y="-2.5" width="7.5" height="5" rx="1.2"/>
      <rect x="-2.5" y="-26" width="5" height="7.5" rx="1.2" transform="rotate(45)"/>
      <rect x="-2.5" y="18.5" width="5" height="7.5" rx="1.2" transform="rotate(45)"/>
      <rect x="18.5" y="-2.5" width="7.5" height="5" rx="1.2" transform="rotate(45)"/>
      <rect x="-26" y="-2.5" width="7.5" height="5" rx="1.2" transform="rotate(45)"/>
    </g>
    <circle r="19" fill="#0c0f14" stroke="#9bffc4" stroke-width="2"/>
    <path d="M0 -14 L3.2 -3.2 L14 0 L3.2 3.2 L0 14 L-3.2 3.2 L-14 0 L-3.2 -3.2 Z" fill="url(#clWordChip)"/>
  </g>
</svg>
