<svg width="800" height="450" xmlns="http://www.w3.org/2000/svg">
  <defs>
    <linearGradient id="superchargeGradient" x1="0%" y1="0%" x2="100%" y2="100%">
      <stop offset="0%" style="stop-color:#713f12;stop-opacity:1" />
      <stop offset="50%" style="stop-color:#f59e0b;stop-opacity:1" />
      <stop offset="100%" style="stop-color:#fbbf24;stop-opacity:1" />
    </linearGradient>
    <radialGradient id="glowSupercharge">
      <stop offset="0%" style="stop-color:#fbbf24;stop-opacity:0.9" />
      <stop offset="100%" style="stop-color:#b45309;stop-opacity:0" />
    </radialGradient>
  </defs>
  
  <!-- Background -->
  <rect width="800" height="450" fill="url(#superchargeGradient)"/>
  
  <!-- Glow effects -->
  <circle cx="400" cy="225" r="200" fill="url(#glowSupercharge)" opacity="0.5"/>
  
  <!-- Lightning bolts -->
  <g transform="translate(300, 100)">
    <path d="M 20 0 L 0 50 L 20 50 L 10 100 L 50 30 L 30 30 Z" 
          fill="#fbbf24" stroke="#78350f" stroke-width="2" opacity="0.9"/>
  </g>
  
  <g transform="translate(480, 150)">
    <path d="M 15 0 L 0 40 L 15 40 L 8 80 L 40 25 L 25 25 Z" 
          fill="#fde047" stroke="#78350f" stroke-width="2" opacity="0.9"/>
  </g>
  
  <!-- Energy orb -->
  <circle cx="400" cy="225" r="60" fill="#78350f" opacity="0.8"/>
  <circle cx="400" cy="225" r="50" fill="#f59e0b" opacity="0.9"/>
  <circle cx="400" cy="225" r="35" fill="#fbbf24"/>
  <circle cx="385" cy="210" r="15" fill="#fde047" opacity="0.7"/>
  
  <!-- Electric particles -->
  <circle cx="200" cy="300" r="4" fill="#fde047"/>
  <circle cx="600" cy="320" r="4" fill="#fde047"/>
  <circle cx="250" cy="150" r="3" fill="#fbbf24"/>
  <circle cx="550" cy="100" r="3" fill="#fbbf24"/>
  <circle cx="150" cy="200" r="2" fill="#fde047" opacity="0.8"/>
  <circle cx="650" cy="250" r="2" fill="#fde047" opacity="0.8"/>
  
  <!-- Energy lines -->
  <line x1="340" y1="225" x2="280" y2="225" stroke="#fde047" stroke-width="3" opacity="0.6" stroke-linecap="round"/>
  <line x1="460" y1="225" x2="520" y2="225" stroke="#fde047" stroke-width="3" opacity="0.6" stroke-linecap="round"/>
  <line x1="400" y1="165" x2="400" y2="105" stroke="#fde047" stroke-width="3" opacity="0.6" stroke-linecap="round"/>
  <line x1="400" y1="285" x2="400" y2="345" stroke="#fde047" stroke-width="3" opacity="0.6" stroke-linecap="round"/>
</svg>