<svg xmlns="http://www.w3.org/2000/svg" width="400" height="225" viewBox="0 0 400 225" fill="none">
  <defs>
    <linearGradient id="cardBg" x1="0" y1="0" x2="1" y2="1">
      <stop offset="0%" stop-color="#123024"/>
      <stop offset="45%" stop-color="#0d1a18"/>
      <stop offset="100%" stop-color="#0a0f14"/>
    </linearGradient>
    <radialGradient id="cardGlow" cx="18%" cy="20%" r="80%">
      <stop offset="0%" stop-color="#1fd65f" stop-opacity="0.35"/>
      <stop offset="60%" stop-color="#1fd65f" stop-opacity="0"/>
    </radialGradient>
    <linearGradient id="cardAmount" x1="0" y1="0" x2="0" y2="1">
      <stop offset="0%" stop-color="#8dffb6"/>
      <stop offset="55%" stop-color="#1fd65f"/>
      <stop offset="100%" stop-color="#12a344"/>
    </linearGradient>
    <radialGradient id="cardChipBody" cx="42%" cy="30%" r="75%">
      <stop offset="0%" stop-color="#2b323d"/>
      <stop offset="60%" stop-color="#171d26"/>
      <stop offset="100%" stop-color="#0a0e14"/>
    </radialGradient>
    <linearGradient id="cardChipEdge" x1="0" y1="0" x2="0" y2="1">
      <stop offset="0%" stop-color="#7dffc2"/>
      <stop offset="50%" stop-color="#3ee68a"/>
      <stop offset="100%" stop-color="#0e8443"/>
    </linearGradient>
    <radialGradient id="cardChipFace" cx="42%" cy="30%" r="75%">
      <stop offset="0%" stop-color="#f2f7f4"/>
      <stop offset="100%" stop-color="#b8c6bd"/>
    </radialGradient>
    <linearGradient id="cardClover" x1="0" y1="0" x2="0" y2="1">
      <stop offset="0%" stop-color="#5cf0a4"/>
      <stop offset="100%" stop-color="#0d7a3d"/>
    </linearGradient>
  </defs>

  <rect width="400" height="225" rx="16" fill="url(#cardBg)"/>
  <rect width="400" height="225" rx="16" fill="url(#cardGlow)"/>
  <rect x="1" y="1" width="398" height="223" rx="15" fill="none" stroke="rgba(31,214,95,0.25)" stroke-width="1.5"/>

  <!-- decorative floating chips -->
  
    <g transform="translate(330 150) rotate(-18)" opacity="0.9">
      <circle r="46" fill="url(#cardChipBody)" stroke="#0a0d13" stroke-width="2.76"/>
      <g fill="url(#cardChipEdge)">
        <path d="M44.1 -9.4 A45.08 45.08 0 0 1 44.1 9.4 L29.7 6.3 A30.360000000000003 30.360000000000003 0 0 0 29.7 -6.3 Z"/><path d="M37.8 24.6 A45.08 45.08 0 0 1 24.6 37.8 L16.5 25.5 A30.360000000000003 30.360000000000003 0 0 0 25.5 16.5 Z"/><path d="M9.4 44.1 A45.08 45.08 0 0 1 -9.4 44.1 L-6.3 29.7 A30.360000000000003 30.360000000000003 0 0 0 6.3 29.7 Z"/><path d="M-24.6 37.8 A45.08 45.08 0 0 1 -37.8 24.6 L-25.5 16.5 A30.360000000000003 30.360000000000003 0 0 0 -16.5 25.5 Z"/><path d="M-44.1 9.4 A45.08 45.08 0 0 1 -44.1 -9.4 L-29.7 -6.3 A30.360000000000003 30.360000000000003 0 0 0 -29.7 6.3 Z"/><path d="M-37.8 -24.6 A45.08 45.08 0 0 1 -24.6 -37.8 L-16.5 -25.5 A30.360000000000003 30.360000000000003 0 0 0 -25.5 -16.5 Z"/><path d="M-9.4 -44.1 A45.08 45.08 0 0 1 9.4 -44.1 L6.3 -29.7 A30.360000000000003 30.360000000000003 0 0 0 -6.3 -29.7 Z"/><path d="M24.6 -37.8 A45.08 45.08 0 0 1 37.8 -24.6 L25.5 -16.5 A30.360000000000003 30.360000000000003 0 0 0 16.5 -25.5 Z"/>
      </g>
      <circle r="27.599999999999998" fill="url(#cardChipFace)"/>
      <g transform="scale(0.92)" fill="url(#cardClover)">
        <path d="M0 -4 C -3.3 -26 -30 -26 -25 -7 C -23 3 -9 4 0 -4 Z" transform="rotate(45)"/>
        <path d="M0 -4 C -3.3 -26 -30 -26 -25 -7 C -23 3 -9 4 0 -4 Z" transform="rotate(135)"/>
        <path d="M0 -4 C -3.3 -26 -30 -26 -25 -7 C -23 3 -9 4 0 -4 Z" transform="rotate(225)"/>
        <path d="M0 -4 C -3.3 -26 -30 -26 -25 -7 C -23 3 -9 4 0 -4 Z" transform="rotate(315)"/>
      </g>
    </g>
  
    <g transform="translate(300 90) rotate(12)" opacity="0.55">
      <circle r="26" fill="url(#cardChipBody)" stroke="#0a0d13" stroke-width="1.56"/>
      <g fill="url(#cardChipEdge)">
        <path d="M24.9 -5.3 A25.48 25.48 0 0 1 24.9 5.3 L16.8 3.6 A17.16 17.16 0 0 0 16.8 -3.6 Z"/><path d="M21.4 13.9 A25.48 25.48 0 0 1 13.9 21.4 L9.3 14.4 A17.16 17.16 0 0 0 14.4 9.3 Z"/><path d="M5.3 24.9 A25.48 25.48 0 0 1 -5.3 24.9 L-3.6 16.8 A17.16 17.16 0 0 0 3.6 16.8 Z"/><path d="M-13.9 21.4 A25.48 25.48 0 0 1 -21.4 13.9 L-14.4 9.3 A17.16 17.16 0 0 0 -9.3 14.4 Z"/><path d="M-24.9 5.3 A25.48 25.48 0 0 1 -24.9 -5.3 L-16.8 -3.6 A17.16 17.16 0 0 0 -16.8 3.6 Z"/><path d="M-21.4 -13.9 A25.48 25.48 0 0 1 -13.9 -21.4 L-9.3 -14.4 A17.16 17.16 0 0 0 -14.4 -9.3 Z"/><path d="M-5.3 -24.9 A25.48 25.48 0 0 1 5.3 -24.9 L3.6 -16.8 A17.16 17.16 0 0 0 -3.6 -16.8 Z"/><path d="M13.9 -21.4 A25.48 25.48 0 0 1 21.4 -13.9 L14.4 -9.3 A17.16 17.16 0 0 0 9.3 -14.4 Z"/>
      </g>
      <circle r="15.6" fill="url(#cardChipFace)"/>
      <g transform="scale(0.52)" fill="url(#cardClover)">
        <path d="M0 -4 C -3.3 -26 -30 -26 -25 -7 C -23 3 -9 4 0 -4 Z" transform="rotate(45)"/>
        <path d="M0 -4 C -3.3 -26 -30 -26 -25 -7 C -23 3 -9 4 0 -4 Z" transform="rotate(135)"/>
        <path d="M0 -4 C -3.3 -26 -30 -26 -25 -7 C -23 3 -9 4 0 -4 Z" transform="rotate(225)"/>
        <path d="M0 -4 C -3.3 -26 -30 -26 -25 -7 C -23 3 -9 4 0 -4 Z" transform="rotate(315)"/>
      </g>
    </g>
  
    <g transform="translate(370 195) rotate(30)" opacity="0.4">
      <circle r="20" fill="url(#cardChipBody)" stroke="#0a0d13" stroke-width="1.2"/>
      <g fill="url(#cardChipEdge)">
        <path d="M19.2 -4.1 A19.6 19.6 0 0 1 19.2 4.1 L12.9 2.7 A13.200000000000001 13.200000000000001 0 0 0 12.9 -2.7 Z"/><path d="M16.4 10.7 A19.6 19.6 0 0 1 10.7 16.4 L7.2 11.1 A13.200000000000001 13.200000000000001 0 0 0 11.1 7.2 Z"/><path d="M4.1 19.2 A19.6 19.6 0 0 1 -4.1 19.2 L-2.7 12.9 A13.200000000000001 13.200000000000001 0 0 0 2.7 12.9 Z"/><path d="M-10.7 16.4 A19.6 19.6 0 0 1 -16.4 10.7 L-11.1 7.2 A13.200000000000001 13.200000000000001 0 0 0 -7.2 11.1 Z"/><path d="M-19.2 4.1 A19.6 19.6 0 0 1 -19.2 -4.1 L-12.9 -2.7 A13.200000000000001 13.200000000000001 0 0 0 -12.9 2.7 Z"/><path d="M-16.4 -10.7 A19.6 19.6 0 0 1 -10.7 -16.4 L-7.2 -11.1 A13.200000000000001 13.200000000000001 0 0 0 -11.1 -7.2 Z"/><path d="M-4.1 -19.2 A19.6 19.6 0 0 1 4.1 -19.2 L2.7 -12.9 A13.200000000000001 13.200000000000001 0 0 0 -2.7 -12.9 Z"/><path d="M10.7 -16.4 A19.6 19.6 0 0 1 16.4 -10.7 L11.1 -7.2 A13.200000000000001 13.200000000000001 0 0 0 7.2 -11.1 Z"/>
      </g>
      <circle r="12" fill="url(#cardChipFace)"/>
      <g transform="scale(0.4)" fill="url(#cardClover)">
        <path d="M0 -4 C -3.3 -26 -30 -26 -25 -7 C -23 3 -9 4 0 -4 Z" transform="rotate(45)"/>
        <path d="M0 -4 C -3.3 -26 -30 -26 -25 -7 C -23 3 -9 4 0 -4 Z" transform="rotate(135)"/>
        <path d="M0 -4 C -3.3 -26 -30 -26 -25 -7 C -23 3 -9 4 0 -4 Z" transform="rotate(225)"/>
        <path d="M0 -4 C -3.3 -26 -30 -26 -25 -7 C -23 3 -9 4 0 -4 Z" transform="rotate(315)"/>
      </g>
    </g>

  <!-- brand wordmark -->
  <g transform="translate(28 34)">
    <text font-family="'Geogrotesque Wide', Arial, sans-serif" font-size="20" font-weight="800" letter-spacing="1">
      <tspan fill="#1fd65f">COSMIC</tspan><tspan fill="#ffffff"> LUCK</tspan>
    </text>
  </g>

  <g transform="translate(372 30)">
      <rect x="-70" y="-15" width="70" height="30" rx="6" fill="#0a0d13" opacity="0.55"/>
      <text x="-35" y="6" font-family="Arial, sans-serif" font-size="14" font-weight="900" fill="#f2c94c" text-anchor="middle" letter-spacing="0.5">KINGUIN</text>
    </g>

  <!-- amount -->
  <text x="28" y="150" font-family="'Geogrotesque Wide', Arial, sans-serif" font-size="64" font-weight="900" fill="url(#cardAmount)">$500</text>

  <!-- label -->
  <text x="30" y="188" font-family="'Geogrotesque Wide', Arial, sans-serif" font-size="24" font-weight="800" fill="#ffffff" letter-spacing="2">GIFT CARD</text>
</svg>
