<svg width="64" height="64" viewBox="0 0 64 64" fill="none" xmlns="http://www.w3.org/2000/svg">
  <defs>
    <linearGradient id="ccChipBody" x1="14" y1="6" x2="50" y2="58" gradientUnits="userSpaceOnUse">
      <stop stop-color="#27f06d"/>
      <stop offset="1" stop-color="#119b45"/>
    </linearGradient>
    <linearGradient id="ccChipFace" x1="18" y1="14" x2="46" y2="50" gradientUnits="userSpaceOnUse">
      <stop stop-color="#1c2128"/>
      <stop offset="1" stop-color="#0e1116"/>
    </linearGradient>
    <linearGradient id="ccChipStar" x1="24" y1="22" x2="40" y2="42" gradientUnits="userSpaceOnUse">
      <stop stop-color="#7bffb0"/>
      <stop offset="1" stop-color="#1fd65f"/>
    </linearGradient>
  </defs>

  <!-- chip body -->
  <circle cx="32" cy="32" r="30" fill="url(#ccChipBody)"/>

  <!-- edge inserts -->
  <g fill="#d7ffe6" opacity="0.9">
    <rect x="29" y="1.5" width="6" height="9" rx="1.5"/>
    <rect x="29" y="53.5" width="6" height="9" rx="1.5"/>
    <rect x="53.5" y="29" width="9" height="6" rx="1.5"/>
    <rect x="1.5" y="29" width="9" height="6" rx="1.5"/>
    <rect x="29" y="1.5" width="6" height="9" rx="1.5" transform="rotate(45 32 32)"/>
    <rect x="29" y="53.5" width="6" height="9" rx="1.5" transform="rotate(45 32 32)"/>
    <rect x="53.5" y="29" width="9" height="6" rx="1.5" transform="rotate(45 32 32)"/>
    <rect x="1.5" y="29" width="9" height="6" rx="1.5" transform="rotate(45 32 32)"/>
  </g>

  <!-- inner ring -->
  <circle cx="32" cy="32" r="23" fill="url(#ccChipFace)" stroke="#7bffb0" stroke-width="2"/>
  <circle cx="32" cy="32" r="19" fill="none" stroke="#1fd65f" stroke-width="1" opacity="0.5"/>

  <!-- center spark -->
  <path d="M32 17 L35.4 28.6 L47 32 L35.4 35.4 L32 47 L28.6 35.4 L17 32 L28.6 28.6 Z" fill="url(#ccChipStar)"/>
  <circle cx="32" cy="32" r="3.2" fill="#0e1116"/>
</svg>
