<svg width="240" height="83" viewBox="0 0 240 83" fill="none" xmlns="http://www.w3.org/2000/svg">
  <path d="M34 22H93L87 35H42L31 62H76L70 76H24C17 76 13 69 16 63L31 29C32 25 33 23 34 22Z" fill="white"/>
  <path d="M104 22H168L162 35H115L112 41H151C158 41 161 47 158 53L151 69C149 73 145 76 140 76H86L92 63H139L143 55H104C97 55 93 49 96 42L102 28C103 25 104 23 104 22Z" fill="white"/>
  <path d="M177 22H224C231 22 234 28 231 35L225 49C223 53 219 56 214 56H184L181 63H218L212 76H162L173 50C175 46 179 43 184 43H216L219 35H171L177 22Z" fill="white"/>
</svg>
