<svg width="64" height="64" viewBox="0 0 64 64" fill="none" xmlns="http://www.w3.org/2000/svg">
  <defs>
    <linearGradient id="rGreenB" x1="8" y1="6" x2="56" y2="58" gradientUnits="userSpaceOnUse">
      <stop stop-color="#7bffae"/><stop offset="1" stop-color="#0f9a45"/>
    </linearGradient>
  </defs>
  <circle cx="32" cy="32" r="28" fill="url(#rGreenB)"/>
  <g fill="#daffe8" opacity="0.9">
    <rect x="29" y="4" width="6" height="9" rx="1.5"/>
    <rect x="29" y="51" width="6" height="9" rx="1.5"/>
    <rect x="51" y="29" width="9" height="6" rx="1.5"/>
    <rect x="4" y="29" width="9" height="6" rx="1.5"/>
    <g transform="rotate(45 32 32)">
      <rect x="29" y="4" width="6" height="9" rx="1.5"/>
      <rect x="29" y="51" width="6" height="9" rx="1.5"/>
      <rect x="51" y="29" width="9" height="6" rx="1.5"/>
      <rect x="4" y="29" width="9" height="6" rx="1.5"/>
    </g>
  </g>
  <circle cx="32" cy="32" r="20" fill="#031a0c" stroke="#9bffc4" stroke-width="2"/>
  <path d="M32 18 L35.5 28.5 L46 32 L35.5 35.5 L32 46 L28.5 35.5 L18 32 L28.5 28.5 Z" fill="url(#rGreenB)"/>
</svg>
